<?xml version="1.0" standalone="no"?>
<!DOCTYPE svg PUBLIC "-//W3C//DTD SVG 20010904//EN"
 "http://www.w3.org/TR/2001/REC-SVG-20010904/DTD/svg10.dtd">
<svg version="1.0" xmlns="http://www.w3.org/2000/svg"
 width="150.000000pt" height="150.000000pt" viewBox="0 0 150.000000 150.000000"
 preserveAspectRatio="xMidYMid meet">
<metadata>
Created by potrace 1.14, written by Peter Selinger 2001-2017
</metadata>
<g transform="translate(0.000000,150.000000) scale(0.100000,-0.100000)"
fill="#000000" stroke="none">
<path d="M330 1371 c-86 -28 -169 -99 -212 -181 -19 -37 -23 -60 -23 -130 0
-77 4 -91 33 -149 18 -34 31 -66 28 -69 -3 -3 -6 0 -6 6 0 25 -42 23 -82 -4
-60 -42 -64 -62 -27 -149 16 -40 37 -79 45 -86 8 -6 14 -18 14 -25 0 -19 -69
-94 -86 -94 -11 0 -14 -19 -14 -80 0 -76 1 -81 25 -92 13 -6 27 -20 31 -32 11
-36 91 -148 157 -218 l63 -68 155 0 c154 0 155 0 201 29 26 17 74 57 108 91
34 34 63 60 64 58 1 -2 13 -19 26 -38 13 -19 44 -59 69 -88 l45 -52 116 0 117
0 101 110 c56 60 105 122 108 136 4 16 1 39 -9 59 -14 30 -32 52 -115 142 -15
16 -29 23 -40 18 -9 -3 -21 -7 -27 -8 -8 -2 -43 177 -44 230 -1 18 16 30 100
69 55 26 105 56 110 66 6 12 6 32 -1 61 -19 73 -32 97 -56 103 -15 4 -25 16
-29 34 -3 16 -13 34 -21 41 -8 6 -22 30 -32 53 -10 22 -47 73 -81 113 -83 97
-136 123 -257 127 -51 1 -112 -3 -143 -11 -50 -12 -58 -12 -110 8 -42 16 -83
23 -166 25 -60 2 -121 0 -135 -5z m185 -76 c29 -8 69 -30 93 -51 l43 -37 39
38 c35 35 46 39 100 43 93 7 135 -14 217 -107 49 -55 73 -92 83 -125 7 -25 18
-46 25 -46 14 0 30 -64 20 -79 -9 -15 12 -22 37 -12 22 8 25 6 35 -29 l10 -38
-110 -53 -110 -53 6 -70 c9 -98 47 -319 57 -330 5 -5 22 5 40 23 17 17 33 31
35 31 1 0 11 -12 20 -28 l18 -27 -22 19 c-21 20 -22 19 -59 -17 -50 -49 -69
-47 -92 6 -24 54 -69 293 -76 407 l-6 85 106 49 c58 27 106 52 106 55 0 3 -3
16 -6 28 -5 19 -9 21 -27 11 -30 -15 -49 12 -78 114 -18 63 -32 91 -59 118
-82 82 -215 78 -286 -7 l-22 -26 -35 36 c-83 82 -245 102 -343 42 -28 -17 -63
-52 -81 -79 -35 -51 -43 -54 -19 -7 21 40 98 107 137 119 75 24 109 23 204 -3z
m-91 -85 c37 -33 62 -93 71 -170 4 -42 4 -41 -8 11 -19 80 -24 89 -47 89 -32
0 -60 -35 -60 -76 0 -56 109 -252 132 -238 8 5 9 -34 5 -142 -10 -231 -46
-362 -121 -440 -43 -44 -76 -55 -121 -38 -55 22 -58 162 -3 179 24 8 23 42 -2
50 -22 7 -80 73 -80 92 0 20 -38 15 -45 -6 -7 -25 -115 -124 -115 -107 0 8 12
22 28 31 33 22 81 76 82 93 0 7 13 12 30 12 38 0 38 9 -1 46 -17 16 -35 38
-40 49 -8 15 -5 14 12 -5 48 -56 110 -74 173 -50 40 15 107 81 127 125 33 73
20 125 -61 245 -55 81 -80 137 -80 183 0 47 14 75 43 87 35 14 44 12 81 -20z
m384 -57 c11 -21 27 -69 36 -108 10 -38 25 -84 35 -101 l19 -31 -52 -21 c-28
-12 -70 -28 -93 -36 l-43 -15 0 49 c0 26 -7 83 -15 126 -17 88 -14 107 23 147
37 39 67 36 90 -10z m-651 -45 c-3 -8 -6 -5 -6 6 -1 11 2 17 5 13 3 -3 4 -12
1 -19z m18 -148 c10 -19 39 -66 65 -105 82 -123 79 -131 -4 -13 -64 92 -96
164 -95 213 1 39 2 39 9 -10 4 -28 15 -66 25 -85z m332 -67 c-2 -21 -4 -6 -4
32 0 39 2 55 4 38 2 -18 2 -50 0 -70z m-368 -138 c14 -27 30 -44 37 -41 7 3
18 -8 24 -25 14 -32 53 -48 79 -32 9 5 21 25 28 44 11 30 12 31 12 9 1 -43
-25 -70 -68 -70 -32 0 -44 6 -72 38 -19 21 -42 53 -52 71 -19 37 -43 36 -40 0
l2 -24 -11 23 c-9 18 -8 25 8 37 27 20 26 20 53 -30z m656 -370 c22 -90 75
-202 115 -240 l31 -30 111 115 c61 63 94 94 75 69 -27 -35 -33 -49 -24 -58 8
-8 22 0 58 35 l46 45 17 -26 c10 -14 16 -30 14 -35 -2 -4 -52 -63 -113 -129
l-110 -121 -67 72 c-82 90 -130 178 -162 294 -13 49 -26 82 -29 74 -60 -180
-86 -227 -166 -303 -99 -94 -207 -130 -280 -92 -40 20 -150 153 -187 227 -18
33 -45 71 -60 85 -18 15 -21 20 -9 14 28 -13 46 -36 88 -111 41 -75 68 -103
120 -125 35 -14 44 -15 92 -1 98 29 205 127 263 241 28 57 68 187 82 275 24
138 32 132 57 -45 12 -88 29 -191 38 -230z m-686 305 c11 -24 11 -24 -3 -6 -9
11 -16 24 -16 30 0 12 5 7 19 -24z"/>
<path d="M930 829 c0 -5 5 -7 10 -4 6 3 10 8 10 11 0 2 -4 4 -10 4 -5 0 -10
-5 -10 -11z"/>
<path d="M325 1200 c-23 -25 -14 -25 27 0 27 16 29 20 12 20 -11 0 -29 -9 -39
-20z"/>
<path d="M332 590 c-19 -10 -29 -21 -23 -25 14 -8 63 16 69 33 5 15 -5 14 -46
-8z"/>
<path d="M462 543 c-43 -42 -111 -67 -157 -59 -19 4 -51 21 -70 38 -26 22 -35
26 -35 14 0 -17 74 -96 90 -96 6 0 10 -11 10 -23 0 -17 10 -29 35 -43 29 -15
35 -24 35 -51 0 -22 -5 -33 -14 -33 -18 0 -46 -38 -46 -62 0 -55 95 25 134
112 28 61 59 190 54 219 -2 12 -10 9 -36 -16z"/>
<path d="M729 1161 c-17 -14 -21 -23 -13 -30 7 -8 17 -2 32 19 26 34 16 39
-19 11z"/>
<path d="M798 1072 c-39 -44 -41 -77 -12 -179 2 -9 14 -8 47 4 l43 16 -23 64
c-13 35 -23 72 -23 83 0 27 -15 32 -32 12z"/>
<path d="M423 162 c-49 -26 -66 -42 -42 -42 22 0 74 30 87 50 7 11 11 20 10
19 -2 0 -26 -13 -55 -27z"/>
</g>
</svg>
